<svg width="25" height="25" viewBox="0 0 25 25" fill="none" xmlns="http://www.w3.org/2000/svg">
<path d="M12.4973 0.77832C7.76034 0.77832 3.9043 4.63437 3.9043 9.3713C3.90429 17.7063 12.0128 24.0428 12.0128 24.0428C12.1513 24.1533 12.3231 24.2134 12.5002 24.2134C12.6772 24.2134 12.8491 24.1533 12.9875 24.0428C12.9875 24.0428 21.096 17.7063 21.096 9.3713C21.096 4.63437 17.2342 0.77832 12.4973 0.77832ZM12.4973 2.3412C16.3898 2.3412 19.5331 5.4788 19.5331 9.3713C19.5332 16.19 13.3587 21.5772 12.503 22.3069C11.6514 21.5809 5.46718 16.1926 5.46718 9.3713C5.46718 5.4788 8.60478 2.3412 12.4973 2.3412Z" fill="#EB0200"/>
<path d="M12.4973 5.46704C10.3492 5.46704 8.59302 7.22327 8.59302 9.37137C8.593 11.5195 10.3492 13.2815 12.4973 13.2815C14.6455 13.2815 16.4075 11.5195 16.4074 9.37137C16.4074 7.22327 14.6454 5.46704 12.4973 5.46704ZM12.4973 7.02993C13.801 7.02993 14.8446 8.0677 14.8446 9.37137C14.8446 10.675 13.801 11.7186 12.4973 11.7186C11.1937 11.7186 10.1559 10.675 10.1559 9.37137C10.1559 8.0677 11.1937 7.02993 12.4973 7.02993Z" fill="#EB0200"/>
</svg>
