<svg width="30" height="30" viewBox="0 0 30 30" fill="none" xmlns="http://www.w3.org/2000/svg">
<g clip-path="url(#clip0_2458_187)">
<path fill-rule="evenodd" clip-rule="evenodd" d="M21.1266 15.5063C20.7609 15.8719 20.1675 15.8719 19.8009 15.5063L15.9375 11.6344V21.5625C15.9375 22.0781 15.5184 22.5 15 22.5C14.4816 22.5 14.0625 22.0781 14.0625 21.5625V11.6344L10.1991 15.5063C9.8325 15.8719 9.23812 15.8719 8.87343 15.5063C8.50687 15.1313 8.50687 14.5406 8.87343 14.175L14.1759 8.86871C14.4009 8.64371 14.7084 8.57809 15 8.63434C15.2916 8.57809 15.5991 8.64371 15.8241 8.86871L21.1266 14.175C21.4931 14.5406 21.4931 15.1313 21.1266 15.5063ZM15 0C6.71531 0 0 6.7125 0 15C0 23.2875 6.71531 30 15 30C23.2847 30 30 23.2875 30 15C30 6.7125 23.2847 0 15 0Z" fill="#330000"/>
</g>
<defs>
<clipPath id="clip0_2458_187">
<rect width="30" height="30" fill="white"/>
</clipPath>
</defs>
</svg>
