<svg width="36" height="36" viewBox="0 0 36 36" fill="none" xmlns="http://www.w3.org/2000/svg">
<g clip-path="url(#clip0_67_142)">
<path d="M18 0C8.0595 0 0 8.05838 0 18C0 27.9416 8.05838 36 18 36C27.9416 36 36 27.9416 36 18C36 8.05838 27.9416 0 18 0ZM18 33.786C9.315 33.786 2.25 26.685 2.25 18C2.25 9.315 9.315 2.25 18 2.25C26.685 2.25 33.75 9.315 33.75 18C33.75 26.685 26.685 33.786 18 33.786ZM24.3641 11.637C23.9254 11.1982 23.2133 11.1982 22.7734 11.637L18.0011 16.4093L13.2289 11.637C12.7901 11.1982 12.0769 11.1982 11.637 11.637C11.1971 12.0757 11.1982 12.789 11.637 13.2278L16.4093 18L11.637 22.7723C11.1982 23.211 11.1982 23.9243 11.637 24.363C12.0757 24.8018 12.789 24.8018 13.2289 24.363L18.0011 19.5907L22.7734 24.363C23.2121 24.8018 23.9242 24.8018 24.3641 24.363C24.804 23.9243 24.8029 23.211 24.3641 22.7723L19.5919 18L24.3641 13.2278C24.804 12.7879 24.804 12.0757 24.3641 11.637Z" fill="#F3F3F3"/>
</g>
<defs>
<clipPath id="clip0_67_142">
<rect width="36" height="36" fill="white"/>
</clipPath>
</defs>
</svg>
