<svg width="35" height="34" viewBox="0 0 35 34" fill="none" xmlns="http://www.w3.org/2000/svg">
<path d="M15.5432 23.5141C15.3652 23.6963 15.1137 23.8 14.8499 23.8C14.5861 23.8 14.3346 23.6963 14.1566 23.5141L9.14603 18.3848C8.79592 18.0264 8.82252 17.4702 9.20545 17.1425C9.58839 16.8148 10.1826 16.8397 10.5327 17.1981L13.9104 20.6559V7.67936C13.9104 7.19373 14.3311 6.80005 14.8499 6.80005C15.3687 6.80005 15.7894 7.19373 15.7894 7.67936V20.6559L19.1671 17.1981C19.5172 16.8397 20.1115 16.8148 20.4944 17.1425C20.8773 17.4702 20.9039 18.0264 20.5538 18.3848L15.5432 23.5141Z" fill="white"/>
<path d="M5.63057 22.95C5.63057 22.4805 5.22075 22.1 4.71519 22.1C4.20964 22.1 3.79981 22.4805 3.79981 22.95V23.0122C3.79978 24.5621 3.79976 25.8114 3.94202 26.794C4.08973 27.8141 4.4057 28.673 5.14036 29.3551C5.87501 30.0374 6.8 30.3308 7.89859 30.4679C8.95674 30.6 10.3021 30.6 11.9713 30.6H19.4284C21.0975 30.6 22.4429 30.6 23.5011 30.4679C24.5997 30.3308 25.5246 30.0374 26.2593 29.3551C26.9939 28.673 27.3099 27.8141 27.4576 26.794C27.5998 25.8114 27.5998 24.5621 27.5998 23.0122V22.95C27.5998 22.4805 27.19 22.1 26.6844 22.1C26.1789 22.1 25.769 22.4805 25.769 22.95C25.769 24.5768 25.7671 25.7113 25.6432 26.5675C25.5227 27.3991 25.3026 27.8394 24.9647 28.1531C24.6269 28.4668 24.1527 28.6713 23.2571 28.7831C22.3351 28.8982 21.1133 28.9 19.3613 28.9H12.0383C10.2863 28.9 9.06445 28.8982 8.14254 28.7831C7.24696 28.6713 6.77269 28.4668 6.4349 28.1531C6.09712 27.8394 5.87687 27.3991 5.75647 26.5675C5.63252 25.7113 5.63057 24.5768 5.63057 22.95Z" fill="white"/>
</svg>
