<svg width="24" height="23" viewBox="0 0 24 23" fill="none" xmlns="http://www.w3.org/2000/svg">
<path id="styled-element" d="M1.03461 9.37852L9.83007 15.4578C10.6141 15.9976 11.0062 16.2675 11.43 16.3723C11.8043 16.465 12.1947 16.465 12.5692 16.3723C12.9929 16.2675 13.385 15.9976 14.1691 15.4578L22.9646 9.37852M9.9199 1.89246L2.83106 6.48981C2.16259 6.92332 1.82836 7.14008 1.58593 7.4331C1.37137 7.69245 1.20993 7.99401 1.11136 8.31958C1 8.68742 1 9.09498 1 9.91014V17.9611C1 19.3749 1 20.0818 1.26643 20.6217C1.50078 21.0967 1.87473 21.4829 2.33469 21.7249C2.85758 22 3.54209 22 4.91111 22H19.0889C20.4579 22 21.1425 22 21.6653 21.7249C22.1253 21.4829 22.4993 21.0967 22.7336 20.6217C23 20.0818 23 19.3749 23 17.9611V9.91014C23 9.09498 23 8.68742 22.8887 8.31958C22.79 7.99401 22.6287 7.69245 22.4141 7.4331C22.1717 7.14008 21.8374 6.92332 21.169 6.48981L14.0801 1.89246C13.3256 1.40322 12.9484 1.1586 12.5438 1.06324C12.1858 0.978919 11.8142 0.978919 11.4562 1.06324C11.0516 1.1586 10.6744 1.40322 9.9199 1.89246Z" stroke="#EB0200" stroke-width="1.5" stroke-linecap="round" stroke-linejoin="round"/>
</svg>
