<svg width="22" height="22" viewBox="0 0 22 22" fill="none" xmlns="http://www.w3.org/2000/svg">
<path id="styled-element" d="M21 3.77778C21 13.2893 13.2893 21 3.77778 21C3.34864 21 2.92318 20.9843 2.50191 20.9534C2.01847 20.918 1.77673 20.9003 1.5567 20.7737C1.37446 20.6688 1.20162 20.4828 1.11028 20.2933C1 20.0647 1 19.7979 1 19.2644V16.1341C1 15.6854 1 15.4611 1.07383 15.2689C1.13906 15.099 1.24499 14.9478 1.38233 14.8284C1.53781 14.6933 1.74862 14.6167 2.17023 14.4633L5.73339 13.1677C6.22392 12.9893 6.46919 12.9001 6.70189 12.9152C6.90708 12.9286 7.10453 12.9987 7.27229 13.1176C7.46253 13.2523 7.59681 13.4761 7.86536 13.9238L8.77778 15.4444C11.7221 14.111 14.109 11.721 15.4444 8.77778L13.9238 7.86536C13.4761 7.59681 13.2523 7.46253 13.1176 7.27229C12.9987 7.10453 12.9286 6.90708 12.9152 6.70189C12.9001 6.46919 12.9893 6.22392 13.1677 5.73339L14.4633 2.17023C14.6167 1.74862 14.6933 1.53781 14.8284 1.38233C14.9478 1.24499 15.099 1.13906 15.2689 1.07383C15.4611 1 15.6854 1 16.1341 1H19.2644C19.7979 1 20.0647 1 20.2933 1.11028C20.4828 1.20162 20.6688 1.37446 20.7737 1.5567C20.9003 1.77674 20.918 2.01847 20.9534 2.50192C20.9843 2.92318 21 3.34864 21 3.77778Z" stroke="#EB0200" stroke-width="1.5" stroke-linecap="round" stroke-linejoin="round"/>
</svg>
