<svg width="41" height="41" viewBox="0 0 41 41" fill="none" xmlns="http://www.w3.org/2000/svg">
<path fill-rule="evenodd" clip-rule="evenodd" d="M20.5494 0.77124C9.52373 0.77124 0.555176 9.72177 0.555176 20.7253C0.555176 25.0892 1.96571 29.1362 4.36352 32.4211L1.8715 39.8348L9.55888 37.3836C12.7207 39.4716 16.4939 40.6797 20.561 40.6797C31.5866 40.6797 40.5552 31.7288 40.5552 20.7257C40.5552 9.72213 31.5866 0.77157 20.561 0.77157L20.5494 0.77124ZM14.9659 10.907C14.5781 9.98034 14.2842 9.94526 13.6967 9.92142C13.4966 9.90983 13.2737 9.89826 13.0265 9.89826C12.2622 9.89826 11.4631 10.1211 10.981 10.6137C10.3935 11.2119 8.93586 12.6077 8.93586 15.4702C8.93586 18.3326 11.0282 21.1011 11.3101 21.4884C11.604 21.8751 15.3892 27.8344 21.2662 30.2632C25.8621 32.1635 27.2259 31.9874 28.2719 31.7646C29.7999 31.4362 31.716 30.3095 32.198 28.9492C32.6801 27.5881 32.68 26.4267 32.5387 26.1804C32.3977 25.9341 32.0096 25.7937 31.4221 25.5C30.8346 25.2067 27.978 23.799 27.4372 23.6113C26.9081 23.412 26.4029 23.4825 26.0035 24.0456C25.4392 24.8316 24.8869 25.6295 24.44 26.1102C24.0874 26.4856 23.5111 26.5326 23.0294 26.333C22.3829 26.0635 20.5729 25.4295 18.3393 23.447C16.6113 21.9105 15.436 19.9986 15.0953 19.4239C14.7542 18.8375 15.0601 18.4969 15.3301 18.1803C15.624 17.8165 15.906 17.5586 16.2 17.2182C16.4939 16.8782 16.6584 16.7021 16.8465 16.3032C17.0466 15.9161 16.9052 15.5172 16.7642 15.2239C16.6232 14.9305 15.4479 12.0681 14.9659 10.907Z" fill="#67C15E"/>
</svg>
