<svg width="27" height="27" viewBox="0 0 27 27" fill="none" xmlns="http://www.w3.org/2000/svg">
<path fill-rule="evenodd" clip-rule="evenodd" d="M13.5 2.25C7.28677 2.25 2.25 7.28677 2.25 13.5C2.25 15.345 2.6948 17.0883 3.48342 18.6265L2.27292 23.7108C2.23961 23.851 2.24274 23.9973 2.28201 24.136C2.32128 24.2746 2.39539 24.4009 2.49727 24.5027C2.59915 24.6046 2.72541 24.6787 2.86404 24.718C3.00267 24.7573 3.14904 24.7604 3.28922 24.7271L8.37352 23.5166C9.91167 24.3052 11.655 24.75 13.5 24.75C19.7132 24.75 24.75 19.7132 24.75 13.5C24.75 7.28677 19.7132 2.25 13.5 2.25ZM3.9375 13.5C3.9375 8.21883 8.21883 3.9375 13.5 3.9375C18.7812 3.9375 23.0625 8.21883 23.0625 13.5C23.0625 18.7812 18.7812 23.0625 13.5 23.0625C11.8288 23.0625 10.26 22.6346 8.89495 21.8828C8.71126 21.7817 8.49651 21.7526 8.29252 21.8011L4.23211 22.7679L5.19891 18.7075C5.24746 18.5035 5.21834 18.2887 5.1172 18.105C4.36542 16.7399 3.9375 15.1712 3.9375 13.5ZM10.4095 16.5905C12.0935 18.2744 14.3388 19.404 16.8435 19.6729C18.4995 19.8505 19.6875 18.4861 19.6875 17.0689V16.0851C19.6875 15.5118 19.5027 14.9538 19.1605 14.4938C18.8183 14.0339 18.3369 13.6965 17.7878 13.5318L17.7095 13.5083L17.6293 13.4925L16.5012 13.2704C16.1385 13.1765 15.76 13.1601 15.3905 13.2223C15.0209 13.2845 14.6687 13.424 14.3567 13.6315C13.9895 13.3422 13.6578 13.0105 13.3685 12.6433C13.5761 12.3313 13.7156 11.979 13.7778 11.6094C13.8401 11.2399 13.8237 10.8613 13.7298 10.4985L13.5073 9.37055L13.4916 9.29039L13.4681 9.21206C13.3034 8.66301 12.966 8.18169 12.5061 7.83951C12.0462 7.49732 11.4883 7.31252 10.915 7.3125H9.93094C8.51386 7.3125 7.14938 8.50022 7.32699 10.1564C7.59586 12.6609 8.72536 14.9065 10.4095 16.5905ZM15.1418 15.1591C15.2667 15.0342 15.423 14.9455 15.5943 14.9024C15.7655 14.8592 15.9452 14.8632 16.1144 14.914L17.3031 15.1481C17.5045 15.2086 17.6811 15.3325 17.8067 15.5012C17.9322 15.67 18 15.8748 18 16.0851V17.0689C18 17.6091 17.5607 18.0526 17.0236 17.9949C15.6818 17.8516 14.3895 17.4078 13.2427 16.6967C12.6478 16.3281 12.0976 15.8921 11.6028 15.3972C11.1079 14.9024 10.6719 14.3522 10.3033 13.7573C9.5922 12.6104 9.14848 11.3181 9.00506 9.97622C8.94741 9.43917 9.39094 9 9.93094 9H10.9149C11.1252 9.00006 11.3299 9.0679 11.4986 9.19347C11.6673 9.31903 11.791 9.49564 11.8515 9.69708L12.0859 10.8855C12.1366 11.0547 12.1407 11.2344 12.0975 11.4057C12.0543 11.5769 11.9656 11.7333 11.8408 11.8582L11.6833 12.0157C11.579 12.1195 11.5041 12.249 11.466 12.391C11.4137 12.5883 11.4373 12.8018 11.5508 12.9849C11.8596 13.4836 12.2251 13.945 12.6399 14.3598C13.0548 14.7747 13.5162 15.1402 14.015 15.4491C14.1981 15.5624 14.4114 15.5862 14.6088 15.5339C14.7509 15.4957 14.8804 15.4208 14.9842 15.3166L15.1418 15.1591Z" fill="#EB0200"/>
</svg>
